<?xml version="1.0" encoding="utf-8"?>
<!-- Generator: Adobe Illustrator 26.0.1, SVG Export Plug-In . SVG Version: 6.00 Build 0)  -->
<svg version="1.1" id="Layer_1" xmlns="http://www.w3.org/2000/svg" xmlns:xlink="http://www.w3.org/1999/xlink" x="0px" y="0px"
	 viewBox="0 0 506.1 105.9" style="enable-background:new 0 0 506.1 105.9;" xml:space="preserve">
<style type="text/css">
	.st0{fill:#00A250;}
	.st1{fill:#FFFFFF;}
	.st2{fill:#231F20;}
	.st3{fill:#231117;}
	.st4{fill:#001E00;}
	.st5{fill:#020000;}
	.st6{fill:#7BC156;}
	.st7{fill:#00A34F;}
</style>
<g>
	<polygon class="st0" points="212.2,67 496.3,66.6 496.5,93.8 212.2,93.9 	"/>
	<path class="st1" d="M474.9,72.3l11.8-0.1c0,0,4.8,1.3,5.1,8.3c0.4,7.2-5,10-5,10h-12"/>
	<polygon class="st1" points="401.2,71.9 405,71.9 411.1,89.7 406.4,89.7 404.8,84.6 398.9,84.6 397.1,89.8 393.4,89.8 	"/>
	<polygon class="st1" points="300.1,71.7 302,71.7 309.4,89.8 304.5,90 302.9,84.6 297,84.6 295.5,89.7 292.5,89.7 	"/>
	<path class="st2" d="M26.1,49.6C26.8,39.8,10,38.1,9.6,32.2c-0.3-3.4,6.9-10.4,12.5-0.9c0.8-1.3,1.7-2.9,2.3-4.8
		c-3-5.7-22.2-5.3-20.8,8.4c1.4,13.9,15,10.2,15.6,16.4c1.1,10.5-12.4,8.7-14,1.6c-1.1,1.9-1.9,4.7-2,7.1
		C16.5,65.5,25.5,59.4,26.1,49.6z"/>
	<path class="st3" d="M56.5,23.7c-13.7,0-20.5,8.8-20.8,19.9C35.4,56.8,44.4,62.3,57.3,62c10.9-0.3,19.1-7.6,19.4-17.5
		C77.2,27.7,65.5,23.7,56.5,23.7z M56.5,58.9c-7.6,0-12.6-6.9-11.8-18c0.5-7.1,4.4-14.1,11.8-13.9c9.5,0.3,11.3,9.1,11.3,18
		C67.9,48.8,64.1,58.9,56.5,58.9z"/>
	<polygon class="st3" points="89.1,24.2 89.2,61.2 97,61.2 97,43.9 108.8,43.9 108.8,39.8 97.3,39.8 97.3,28.5 110.3,28.8 
		110.3,24.2 	"/>
	<polygon class="st3" points="119.3,25 147.1,25 147.2,30.2 137.7,28.6 137.7,61.2 129.2,61.2 129.2,28.5 119.4,29.6 	"/>
	<polygon class="st4" points="154.4,19.6 160.5,13.6 170,47 181,26.8 178.4,19.1 185.3,13.6 195.8,50.4 191.3,60 181.8,30 
		166.5,61.5 	"/>
	<polygon class="st4" points="194.7,59.7 210.5,19.7 216.4,19.7 207.7,43.1 	"/>
	<path class="st3" d="M232.4,24.1l-4.1,0.2L213,61.6l4.9-0.3l3.6-10.6l12.4-0.3l3.9,10.9h9L232.4,24.1z M223.7,46.6l4.6-11.7
		l4.6,11.7H223.7z"/>
	<path class="st3" d="M274.9,43c0,0,7.4,0.1,8-8.5c0.6-8.8-7.1-9.9-7.1-9.9l-17.6,0.2l0.2,36.6h7.9l0.3-16.7l9.9,16.7l9.6,0.2
		L274.9,43z M266.4,41.9V27.5c0,0,9-1.1,8.5,6.6C274.3,43.9,266.4,41.9,266.4,41.9z"/>
	<polygon class="st3" points="297.5,24.8 297.5,61.1 317.6,61.1 317.6,56.7 305.7,57 305.7,43.7 317.2,43.9 317.3,39.7 305.5,40 
		305.5,28.8 317.5,29.1 317.6,24.8 	"/>
	<path class="st2" d="M367.4,24.4l-16,0.2l0.2,36.9l7.8,0l0-16.4c0,0,15.5,3,16.9-10.8C377.1,25.5,367.4,24.4,367.4,24.4z
		 M359.9,42.3l-0.2-14.9c0,0,8.9-1.5,8.4,6.5C367.5,44.1,359.9,42.3,359.9,42.3z"/>
	<path class="st5" d="M401.9,24.2l-4.9-0.5l-15.9,37.1l5.6,0.2l3.7-10.7l12.4-0.2l4.1,11l8.8,0.2L401.9,24.2z M391.9,46.7l4.9-12.2
		l4.6,12.4L391.9,46.7z"/>
	<path class="st5" d="M443.9,43c0,0,8.8-1.2,8.3-10c-0.3-5.9-7.8-8.5-7.8-8.5h-16.8l0.2,36.8h7.1l0.5-17.6l10.5,18.1l9.3-0.2
		L443.9,43z M435.3,41.8l-0.2-14.2c0,0,9-2.2,8.5,6.8C443.1,44.2,435.3,41.8,435.3,41.8z"/>
	<polygon class="st5" points="466.1,24.7 474.1,24.7 474.4,41.3 488,24.5 493.9,24.7 480.5,40.1 494.6,61.3 485.9,61.5 474.4,45.2 
		474.4,61 466.3,61.3 	"/>
	<polygon class="st0" points="10.7,11.2 12.5,11.2 6.7,17.3 4.9,17.3 	"/>
	<polygon class="st0" points="17.1,11.4 19.2,11.4 13.3,17.5 11.2,17.4 	"/>
	<polygon class="st0" points="23.6,11.4 25.6,11.4 19.5,17.5 17.5,17.4 	"/>
	<polygon class="st0" points="30,11.4 32,11.4 26,17.4 24,17.5 	"/>
	<polygon class="st0" points="36.4,11.4 38.4,11.4 32.5,17.5 30.4,17.4 	"/>
	<polygon class="st0" points="42.8,11.5 45,11.5 39.1,17.5 36.8,17.5 	"/>
	<polygon class="st0" points="49.4,11.4 51.8,11.4 46,17.4 43.6,17.5 	"/>
	<polygon class="st0" points="56.1,11.3 58.1,11.3 52.1,17.5 50,17.4 	"/>
	<polygon class="st0" points="62.4,11.5 64.5,11.5 58.9,17.5 56.5,17.5 	"/>
	<polygon class="st0" points="68.8,11.5 71,11.5 65.3,17.4 63.1,17.4 	"/>
	<polygon class="st0" points="75.3,11.5 77.5,11.5 71.5,17.6 69.4,17.6 	"/>
	<polygon class="st0" points="81.9,11.4 84.1,11.4 78.1,17.6 75.9,17.6 	"/>
	<polygon class="st0" points="88.4,11.5 90.5,11.5 84.3,17.8 82.4,17.7 	"/>
	<polygon class="st0" points="95,11.5 96.9,11.5 90.8,17.7 88.8,17.7 	"/>
	<polygon class="st0" points="101.3,11.5 103.7,11.5 97.4,17.9 95.1,17.9 	"/>
	<polygon class="st0" points="107.8,11.4 111,11.4 104.7,17.8 101.6,17.8 	"/>
	<polygon class="st0" points="113.6,11.5 116.7,11.5 110.4,17.8 107,17.8 	"/>
	<polygon class="st0" points="125.8,11.5 129.8,11.5 123.6,17.7 119.7,17.7 	"/>
	<polygon class="st0" points="131.9,11.4 136.3,11.4 129.9,17.9 125.4,17.9 	"/>
	<polygon class="st0" points="137.7,11.4 142.9,11.4 136.3,17.8 131.2,17.9 	"/>
	<polygon class="st0" points="143.8,11.4 159.3,11.4 152.8,17.9 137.4,17.9 	"/>
	<polygon class="st0" points="209.2,17.5 215,11.5 230.6,11.5 225.4,17.8 	"/>
	<polygon class="st0" points="233.8,11.5 239,11.5 232.7,17.9 227.5,17.9 	"/>
	<polygon class="st0" points="242,11.5 247.1,11.5 240.6,17.9 235.5,17.9 	"/>
	<polygon class="st0" points="250,11.5 255,11.5 248.6,18 243.3,18 	"/>
	<polygon class="st0" points="257.9,11.5 263.2,11.5 256.6,17.9 251.6,17.9 	"/>
	<polygon class="st0" points="265.9,11.5 270.8,11.5 264.8,17.9 259.6,17.9 	"/>
	<polygon class="st0" points="274,11.5 278.8,11.5 272.5,17.9 267.7,17.9 	"/>
	<polygon class="st0" points="282,11.5 286.8,11.5 280.5,17.9 275.8,17.9 	"/>
	<polygon class="st0" points="289.9,11.4 294.9,11.4 288.5,17.9 283.7,17.9 	"/>
	<polygon class="st0" points="298.2,11.5 302.7,11.5 296.7,17.9 291.6,17.9 	"/>
	<polygon class="st0" points="306,11.5 310.6,11.5 304.2,18 299.7,18 	"/>
	<polygon class="st0" points="314.2,11.5 318.8,11.5 312.2,17.9 307.7,17.9 	"/>
	<polygon class="st0" points="322.3,11.5 326.5,11.5 320.3,18 315.8,18 	"/>
	<polygon class="st0" points="330.2,11.5 334.7,11.5 328.5,17.8 323.9,17.8 	"/>
	<polygon class="st0" points="338.4,11.4 342.9,11.4 336.6,17.9 332.3,17.9 	"/>
	<polygon class="st0" points="346.7,11.5 351,11.5 344.1,17.9 340.5,17.9 	"/>
	<polygon class="st0" points="354.9,11.4 358.7,11.4 352.4,17.8 348.4,17.8 	"/>
	<polygon class="st0" points="356.5,17.8 360.6,17.8 366.8,11.5 362.9,11.5 	"/>
	<polygon class="st0" points="370.9,11.5 374.8,11.5 368.8,17.9 364.8,17.9 	"/>
	<polygon class="st0" points="379.1,11.5 382.8,11.5 376.6,17.9 372.8,17.9 	"/>
	<polygon class="st0" points="387.3,11.5 391.2,11.5 384.7,18 380.8,18 	"/>
	<polygon class="st0" points="395.5,11.4 399.3,11.4 392.9,17.9 389.1,17.9 	"/>
	<polygon class="st0" points="403.6,11.5 407.3,11.5 401.1,17.9 397.4,17.9 	"/>
	<polygon class="st0" points="411.7,11.5 415.2,11.5 409.4,17.9 405.3,17.9 	"/>
	<polygon class="st0" points="419.6,11.5 423.1,11.5 417.1,17.8 413.7,17.8 	"/>
	<polygon class="st0" points="427.7,11.6 431.2,11.6 425.2,17.8 421.8,17.8 	"/>
	<polygon class="st0" points="436,11.6 439.5,11.6 433.1,17.8 430,17.8 	"/>
	<polygon class="st0" points="443.8,11.5 447.3,11.5 441.1,17.9 437.7,17.9 	"/>
	<polygon class="st0" points="452.3,11.5 455.2,11.5 449.2,17.8 446,17.8 	"/>
	<polygon class="st0" points="460.2,11.4 463.3,11.4 457.4,17.9 454.1,17.9 	"/>
	<polygon class="st0" points="468.5,11.5 471.6,11.5 465.2,17.9 462.1,17.9 	"/>
	<polygon class="st0" points="476.3,11.5 479.3,11.5 473.2,17.8 470.1,17.8 	"/>
	<polygon class="st0" points="484.5,11.4 487.5,11.4 481.3,17.9 478.1,17.9 	"/>
	<polygon class="st0" points="500.5,11.4 503.1,11.4 497.1,17.9 494.2,17.9 	"/>
	<polygon class="st0" points="492.3,11.5 495.2,11.5 489.1,17.9 486,17.9 	"/>
	<polygon class="st0" points="119.9,11.5 123.1,11.5 116.7,17.9 113.5,17.9 	"/>
	<polygon class="st1" points="216.4,72 231.3,72 231.2,74.5 226.5,74.5 226.5,90.1 221.8,90.1 221.6,74.6 216.4,74.6 	"/>
	<polygon class="st1" points="253.1,72 258.2,72 258.2,78.7 265.6,78.7 265.6,72 270.2,72 270.2,89.8 265.7,89.8 265.7,81.8 
		258.2,81.8 258.2,90 253.1,90 	"/>
	<polygon class="st6" points="300.2,77.5 302.4,82.9 297.7,82.8 	"/>
	<polygon class="st1" points="332.1,72 336.9,72 336.9,90.1 332.1,90.1 	"/>
	<polygon class="st1" points="366.1,72.3 366,87.5 372.1,87.5 372.2,90 362.1,90 362.1,72.3 	"/>
	<polygon class="st6" points="402.1,77.5 404,82.9 399.9,82.8 	"/>
	<polyline class="st1" points="436.7,78 447.2,90.6 450.4,90.6 450.5,72.2 447.7,72.2 447.7,84.2 437,72.3 432.8,72.3 432.8,90.1 
		436.4,90.1 	"/>
	<path class="st7" d="M479.2,74.2l4.9,0.1c0,0,4,1.6,3.4,7.4c-0.5,5-2.8,6.2-2.8,6.2h-5.5V74.2z"/>
	<path class="st6" d="M489.7,107.9"/>
</g>
</svg>
